<svg width="19" height="19" viewBox="0 0 19 19" fill="none" xmlns="http://www.w3.org/2000/svg">
<path d="M15.6514 18.6707L12.1291 15.18C11.9701 15.0224 11.8811 14.8082 11.88 14.583L11.8771 14.0094C10.6411 14.9869 9.08324 15.5718 7.38538 15.5804C3.34638 15.6008 0.0572031 12.3412 0.0368481 8.29789C0.0164931 4.25462 3.27268 0.96198 7.31169 0.941611C11.3507 0.921241 14.6399 4.18087 14.6602 8.22414C14.6688 9.92379 14.1001 11.4891 13.1362 12.7362L13.7092 12.7333C13.9342 12.7322 14.149 12.8191 14.308 12.9766L17.8304 16.4673C18.1625 16.7964 18.1652 17.3313 17.8364 17.6602L16.8466 18.6611C16.5178 18.9936 15.9835 18.9963 15.6514 18.6707ZM11.848 8.23832C11.8355 5.75043 9.81465 3.74421 7.32586 3.75676C4.84059 3.7693 2.83649 5.79229 2.84904 8.2837C2.86156 10.7716 4.88243 12.7778 7.37121 12.7653C9.85648 12.7527 11.8606 10.7297 11.848 8.23832Z" fill="white"/>
</svg>
