<svg width="30" height="31" viewBox="0 0 30 31" fill="none" xmlns="http://www.w3.org/2000/svg">
<path d="M30 15.9585C30 7.66492 23.2863 0.945312 15 0.945312C6.71371 0.945313 0 7.66492 0 15.9585C0 24.2521 6.71371 30.9717 15 30.9717C23.2863 30.9717 30 24.2521 30 15.9585ZM2.90323 15.9585C2.90323 9.26916 8.31653 3.85109 15 3.85109C21.6835 3.85109 27.0968 9.26916 27.0968 15.9585C27.0968 22.6478 21.6835 28.0659 15 28.0659C8.31653 28.0659 2.90323 22.6478 2.90323 15.9585ZM7.25806 17.1692V14.7478C7.25806 14.3482 7.58468 14.0213 7.98387 14.0213L15 14.0213V9.96533C15 9.31758 15.7802 8.99674 16.2399 9.45077L22.2278 15.4439C22.5121 15.7285 22.5121 16.1885 22.2278 16.4731L16.2399 22.4662C15.7802 22.9263 15 22.5994 15 21.9517V17.8957H7.98387C7.58468 17.8957 7.25806 17.5688 7.25806 17.1692Z" fill="black"/>
</svg>
